#tb 0: 1/25
0,          0,          0,        1,   152064, 0xda244f3f
0,          1,          1,        1,   152064, 0x35a1cb02
0,          2,          2,        1,   152064, 0xa729d9ca
0,          3,          3,        1,   152064, 0x69d90602
0,          4,          4,        1,   152064, 0x4ccdae72
0,          5,          5,        1,   152064, 0x06f9d8b9
0,          6,          6,        1,   152064, 0x0a14a736
0,          7,          7,        1,   152064, 0xc344b167
0,          8,          8,        1,   152064, 0xf3303e92
0,          9,          9,        1,   152064, 0xbe28813f
0,         10,         10,        1,   152064, 0x971f4980
0,         11,         11,        1,   152064, 0x69124d31
0,         12,         12,        1,   152064, 0x6d93e7f2
0,         13,         13,        1,   152064, 0x5c1315e4
0,         14,         14,        1,   152064, 0xb011cfe4
0,         15,         15,        1,   152064, 0x65a0d147
0,         16,         16,        1,   152064, 0x463d8c39
0,         17,         17,        1,   152064, 0x15f2a757
0,         18,         18,        1,   152064, 0xc2418f1f
0,         19,         19,        1,   152064, 0x7a48b94c
0,         20,         20,        1,   152064, 0x1c079ec9
0,         21,         21,        1,   152064, 0x348ced32
0,         22,         22,        1,   152064, 0x6014d525
0,         23,         23,        1,   152064, 0x146ed41f
0,         24,         24,        1,   152064, 0x543177e6
0,         25,         25,        1,   152064, 0x79a4b44e
0,         26,         26,        1,   152064, 0x4401a7ae
0,         27,         27,        1,   152064, 0xc0aec3c1
0,         28,         28,        1,   152064, 0x92348852
0,         29,         29,        1,   152064, 0x90eece70
0,         30,         30,        1,   152064, 0x19efd00f
0,         31,         31,        1,   152064, 0x608912ac
0,         32,         32,        1,   152064, 0xa707bdb1
0,         33,         33,        1,   152064, 0x926e1ffe
0,         34,         34,        1,   152064, 0x56863ca8
0,         35,         35,        1,   152064, 0xe18e81b4
0,         36,         36,        1,   152064, 0xf17466f2
0,         37,         37,        1,   152064, 0x2281feef
0,         38,         38,        1,   152064, 0x33603b66
0,         39,         39,        1,   152064, 0xe30fad28
0,         40,         40,        1,   152064, 0x66efb21e
0,         41,         41,        1,   152064, 0x405f32d6
0,         42,         42,        1,   152064, 0xe90f262b
0,         43,         43,        1,   152064, 0xf85144b0
0,         44,         44,        1,   152064, 0xcff4feab
0,         45,         45,        1,   152064, 0x02b63e49
0,         46,         46,        1,   152064, 0x91d9ff77
0,         47,         47,        1,   152064, 0x2c6c0d2a
0,         48,         48,        1,   152064, 0xacad9e66
0,         49,         49,        1,   152064, 0x83951353
0,         50,         50,        1,   152064, 0x549c16e4
0,         51,         51,        1,   152064, 0xcad9610c
0,         52,         52,        1,   152064, 0x264e4b57
0,         53,         53,        1,   152064, 0x9758afe8
0,         54,         54,        1,   152064, 0x0273a81d
0,         55,         55,        1,   152064, 0x31c6f1a0
0,         56,         56,        1,   152064, 0x80d1c9cf
0,         57,         57,        1,   152064, 0x41b861f7
0,         58,         58,        1,   152064, 0xad416fe7
0,         59,         59,        1,   152064, 0xdde59bf0
0,         60,         60,        1,   152064, 0x886c491c
0,         61,         61,        1,   152064, 0x4bf4a21f
0,         62,         62,        1,   152064, 0x2581a06e
0,         63,         63,        1,   152064, 0x8188cf9b
0,         64,         64,        1,   152064, 0xbfaf82ce
0,         65,         65,        1,   152064, 0xed9ef8b1
0,         66,         66,        1,   152064, 0xf5f4e0c0
0,         67,         67,        1,   152064, 0xa24421ac
0,         68,         68,        1,   152064, 0xf0cdde38
0,         69,         69,        1,   152064, 0x7f211f2c
0,         70,         70,        1,   152064, 0x241ff38b
0,         71,         71,        1,   152064, 0x19bc25a6
0,         72,         72,        1,   152064, 0xd9d5ede9
0,         73,         73,        1,   152064, 0x88f98579
0,         74,         74,        1,   152064, 0x630da1aa
0,         75,         75,        1,   152064, 0x19abf44f
0,         76,         76,        1,   152064, 0x3a95d341
0,         77,         77,        1,   152064, 0xdeb9333e
0,         78,         78,        1,   152064, 0x0c994783
0,         79,         79,        1,   152064, 0xb58b7d26
0,         80,         80,        1,   152064, 0x6e392b24
0,         81,         81,        1,   152064, 0x1f7e2d63
0,         82,         82,        1,   152064, 0x732342d3
0,         83,         83,        1,   152064, 0xbda4a761
0,         84,         84,        1,   152064, 0xdc387777
0,         85,         85,        1,   152064, 0xd5d00469
0,         86,         86,        1,   152064, 0xc840cf6d
0,         87,         87,        1,   152064, 0x3dfef3d9
0,         88,         88,        1,   152064, 0xf731594f
0,         89,         89,        1,   152064, 0x126fef41
0,         90,         90,        1,   152064, 0x5705b1e3
0,         91,         91,        1,   152064, 0xa8ecbe94
0,         92,         92,        1,   152064, 0xcbcd0e48
0,         93,         93,        1,   152064, 0x3da860da
0,         94,         94,        1,   152064, 0x97882d5f
0,         95,         95,        1,   152064, 0x19803d16
0,         96,         96,        1,   152064, 0xa639b969
0,         97,         97,        1,   152064, 0xc0a00bc3
0,         98,         98,        1,   152064, 0xb12f0617
0,         99,         99,        1,   152064, 0x0e53481c
0,        100,        100,        1,   152064, 0x1fa0e47d
0,        101,        101,        1,   152064, 0x818119fa
0,        102,        102,        1,   152064, 0xc28ffc3e
0,        103,        103,        1,   152064, 0x8abdfb3c
0,        104,        104,        1,   152064, 0x670cb951
0,        105,        105,        1,   152064, 0x172808bd
0,        106,        106,        1,   152064, 0x6be1ea7f
0,        107,        107,        1,   152064, 0x05dbfadc
0,        108,        108,        1,   152064, 0xcfcfbcec
0,        109,        109,        1,   152064, 0x9306e1d2
0,        110,        110,        1,   152064, 0xcf3ccc54
0,        111,        111,        1,   152064, 0xf36ad41a
0,        112,        112,        1,   152064, 0x751b835b
0,        113,        113,        1,   152064, 0x7ebed47b
0,        114,        114,        1,   152064, 0x9659d022
0,        115,        115,        1,   152064, 0xef7701ae
0,        116,        116,        1,   152064, 0x5cdee3b0
0,        117,        117,        1,   152064, 0xf6c3ed42
0,        118,        118,        1,   152064, 0x412ee2fb
0,        119,        119,        1,   152064, 0x309cd2bd
0,        120,        120,        1,   152064, 0x50f09af5
0,        121,        121,        1,   152064, 0x4a05087a
0,        122,        122,        1,   152064, 0xaedc2125
0,        123,        123,        1,   152064, 0x54e2692a
0,        124,        124,        1,   152064, 0x0403590c
0,        125,        125,        1,   152064, 0x8a4c9833
0,        126,        126,        1,   152064, 0x36b6893e
0,        127,        127,        1,   152064, 0x21fd9204
0,        128,        128,        1,   152064, 0xa1cd3bc7
0,        129,        129,        1,   152064, 0x3cfa3d18
0,        130,        130,        1,   152064, 0xb5f7fefd
0,        131,        131,        1,   152064, 0x133cf831
0,        132,        132,        1,   152064, 0xcaabdd54
0,        133,        133,        1,   152064, 0xcab45366
0,        134,        134,        1,   152064, 0x8b6f4c90
0,        135,        135,        1,   152064, 0x4de74903
0,        136,        136,        1,   152064, 0x2dde0c4f
0,        137,        137,        1,   152064, 0x09364c1d
0,        138,        138,        1,   152064, 0x610318b9
0,        139,        139,        1,   152064, 0xd85109d5
0,        140,        140,        1,   152064, 0x27a1eac7
0,        141,        141,        1,   152064, 0xafd50e70
0,        142,        142,        1,   152064, 0x96ac088c
0,        143,        143,        1,   152064, 0x1332091c
0,        144,        144,        1,   152064, 0x9d38ce90
0,        145,        145,        1,   152064, 0xeff10d8e
0,        146,        146,        1,   152064, 0x6c320de3
0,        147,        147,        1,   152064, 0xeb683437
0,        148,        148,        1,   152064, 0xe8a73715
0,        149,        149,        1,   152064, 0x53a27669
0,        150,        150,        1,   152064, 0xd5665cdc
0,        151,        151,        1,   152064, 0x76bc4f86
0,        152,        152,        1,   152064, 0xb5282913
0,        153,        153,        1,   152064, 0xf788398b
0,        154,        154,        1,   152064, 0xa2a74268
0,        155,        155,        1,   152064, 0x1e8c57c4
0,        156,        156,        1,   152064, 0x12c0542f
0,        157,        157,        1,   152064, 0x8dbe9945
0,        158,        158,        1,   152064, 0x0f7583cd
0,        159,        159,        1,   152064, 0x814e9e0b
0,        160,        160,        1,   152064, 0x39575c04
0,        161,        161,        1,   152064, 0x75a07f38
0,        162,        162,        1,   152064, 0x8a6247c1
0,        163,        163,        1,   152064, 0x0f8d606e
0,        164,        164,        1,   152064, 0x7dcc4169
0,        165,        165,        1,   152064, 0x039d6df2
0,        166,        166,        1,   152064, 0x16b779c4
0,        167,        167,        1,   152064, 0x8b3a9767
0,        168,        168,        1,   152064, 0x281e6d83
0,        169,        169,        1,   152064, 0x7d22a528
0,        170,        170,        1,   152064, 0x93778828
0,        171,        171,        1,   152064, 0xd54c95fc
0,        172,        172,        1,   152064, 0xf4e76d9a
0,        173,        173,        1,   152064, 0xaa7ba3fd
0,        174,        174,        1,   152064, 0x94d88d91
0,        175,        175,        1,   152064, 0xa46b9c34
0,        176,        176,        1,   152064, 0x9dcb4d0c
0,        177,        177,        1,   152064, 0x347d0983
0,        178,        178,        1,   152064, 0x870ecd2b
0,        179,        179,        1,   152064, 0x5dafe6d6
0,        180,        180,        1,   152064, 0x10d77857
0,        181,        181,        1,   152064, 0xddc1d127
0,        182,        182,        1,   152064, 0x2732a13c
0,        183,        183,        1,   152064, 0x3d81bac9
0,        184,        184,        1,   152064, 0x619d3dd3
0,        185,        185,        1,   152064, 0x2db3e1ac
0,        186,        186,        1,   152064, 0x63a7e7e5
0,        187,        187,        1,   152064, 0x902a4c92
0,        188,        188,        1,   152064, 0x9c38e0f6
0,        189,        189,        1,   152064, 0x8ceb3a46
0,        190,        190,        1,   152064, 0x73cbb6bd
0,        191,        191,        1,   152064, 0x5f6fa7d6
0,        192,        192,        1,   152064, 0x8cdad086
0,        193,        193,        1,   152064, 0xe7cf083f
0,        194,        194,        1,   152064, 0x18c0f6b9
0,        195,        195,        1,   152064, 0xfe582ddf
0,        196,        196,        1,   152064, 0x5fca4740
0,        197,        197,        1,   152064, 0x072981ab
0,        198,        198,        1,   152064, 0xcb874172
0,        199,        199,        1,   152064, 0xfa153e05
0,        200,        200,        1,   152064, 0x259ae495
0,        201,        201,        1,   152064, 0x1714beb4
0,        202,        202,        1,   152064, 0xa051721e
0,        203,        203,        1,   152064, 0x52d17b85
0,        204,        204,        1,   152064, 0x9cbf5da3
0,        205,        205,        1,   152064, 0x28d69092
0,        206,        206,        1,   152064, 0xbdb942e7
0,        207,        207,        1,   152064, 0xeefe2253
0,        208,        208,        1,   152064, 0xbef2af4d
0,        209,        209,        1,   152064, 0x622dee36
0,        210,        210,        1,   152064, 0x61decf4e
0,        211,        211,        1,   152064, 0x8dfefdbe
0,        212,        212,        1,   152064, 0x78d67e90
0,        213,        213,        1,   152064, 0x9cddaa58
0,        214,        214,        1,   152064, 0x8d487f4d
0,        215,        215,        1,   152064, 0x67f58715
0,        216,        216,        1,   152064, 0xc9203f22
0,        217,        217,        1,   152064, 0x0fec8343
0,        218,        218,        1,   152064, 0xb57e7b6a
0,        219,        219,        1,   152064, 0xa2ed7700
0,        220,        220,        1,   152064, 0x34722cad
0,        221,        221,        1,   152064, 0x02c83b2a
0,        222,        222,        1,   152064, 0x91b11583
0,        223,        223,        1,   152064, 0x7676166d
0,        224,        224,        1,   152064, 0x76a9d5fc
0,        225,        225,        1,   152064, 0x4fcd1750
0,        226,        226,        1,   152064, 0xaa6ff7bf
0,        227,        227,        1,   152064, 0x5e2bfab6
0,        228,        228,        1,   152064, 0x3abec811
0,        229,        229,        1,   152064, 0x0711eb85
0,        230,        230,        1,   152064, 0xb10ebf41
0,        231,        231,        1,   152064, 0x32d8cb56
0,        232,        232,        1,   152064, 0x9b1ca411
0,        233,        233,        1,   152064, 0x771f0768
0,        234,        234,        1,   152064, 0x69e1258e
0,        235,        235,        1,   152064, 0xe8b352e2
0,        236,        236,        1,   152064, 0x3ee638d8
0,        237,        237,        1,   152064, 0x0bc48414
0,        238,        238,        1,   152064, 0xc1df5925
0,        239,        239,        1,   152064, 0xb30f705e
0,        240,        240,        1,   152064, 0x90654127
0,        241,        241,        1,   152064, 0x000e5f43
0,        242,        242,        1,   152064, 0x1f5e5e15
0,        243,        243,        1,   152064, 0x4aa48433
0,        244,        244,        1,   152064, 0xb74a56a3
0,        245,        245,        1,   152064, 0x94347a06
0,        246,        246,        1,   152064, 0xd14e58d4
0,        247,        247,        1,   152064, 0x60116d97
0,        248,        248,        1,   152064, 0xf2962979
0,        249,        249,        1,   152064, 0x7f176514
